<svg xmlns="http://www.w3.org/2000/svg" xmlns:xlink="http://www.w3.org/1999/xlink" xmlns:lucid="lucid" width="5742"
     height="4004">
    <g transform="translate(67051 48565)" lucid:page-tab-id="0_0">
        <path d="M-62814.66-46640c0 750.72-600.1 1360-1339.55 1360-739.44 0-1339.56-609.28-1339.56-1360s600.12-1360 1339.55-1360c739.42 0 1339.54 609.28 1339.54 1360z"
              stroke="#3a414a" stroke-width="10" fill-opacity="0"/>
        <path d="M-64536.45-47200c22.97 0 41.76 18.5 41.76 41.5s-18.78 42-41.75 42c-22.96 0-41.54-19-41.54-42s18.6-41.5 41.55-41.5zm52.4 94H-64588c-28.83 0-52 23-52 52v127c0 10 7.93 18.5 18.37 18.5 10.23 0 18.17-8 18.17-18.5v-116.5c0-3 2.5-5.5 5.2-5.5 2.94 0 5.44 2.5 5.44 5.5v315c0 15.5 11.5 28.5 25.9 28.5 14.4 0 26.1-13 26.1-28.5v-179.5c0-3 2.28-5.5 5.2-5.5 2.93 0 5.23 2.5 5.23 5.5v179.5c0 15.5 11.7 28.5 26.1 28.5 14.4 0 25.9-13 25.9-28.5v-315c0-3 2.5-5.5 5.42-5.5 2.7 0 5.22 2.5 5.22 5.5v117c0 10 7.93 18 18.16 18 10.44 0 18.37-8 18.37-18v-127.5c-.83-29-24.63-52-52.82-52zM-64724.9-47780c22.97 0 41.76 18.5 41.76 41.5s-18.8 42-41.75 42c-22.96 0-41.54-19-41.54-42s18.58-41.5 41.55-41.5zm52.4 94h-103.96c-28.8 0-51.98 23-51.98 52v127c0 10 7.93 18.5 18.37 18.5 10.23 0 18.16-8 18.16-18.5v-116.5c0-3 2.5-5.5 5.2-5.5 2.93 0 5.44 2.5 5.44 5.5v315c0 15.5 11.48 28.5 25.9 28.5 14.4 0 26.08-13 26.08-28.5v-179.5c0-3 2.3-5.5 5.22-5.5 2.93 0 5.22 2.5 5.22 5.5v179.5c0 15.5 11.7 28.5 26.1 28.5 14.4 0 25.9-13 25.9-28.5v-315c0-3 2.5-5.5 5.4-5.5 2.73 0 5.23 2.5 5.23 5.5v117c0 10 7.93 18 18.16 18 10.44 0 18.37-8 18.37-18v-127.5c-.83-29-24.64-52-52.82-52zM-64176.45-47200c22.97 0 41.76 18.5 41.76 41.5s-18.78 42-41.75 42c-22.96 0-41.54-19-41.54-42s18.6-41.5 41.55-41.5zm52.4 94H-64228c-28.83 0-52 23-52 52v127c0 10 7.93 18.5 18.37 18.5 10.23 0 18.17-8 18.17-18.5v-116.5c0-3 2.5-5.5 5.2-5.5 2.94 0 5.44 2.5 5.44 5.5v315c0 15.5 11.5 28.5 25.9 28.5 14.4 0 26.1-13 26.1-28.5v-179.5c0-3 2.28-5.5 5.2-5.5 2.93 0 5.23 2.5 5.23 5.5v179.5c0 15.5 11.7 28.5 26.1 28.5 14.4 0 25.9-13 25.9-28.5v-315c0-3 2.5-5.5 5.42-5.5 2.7 0 5.22 2.5 5.22 5.5v117c0 10 7.93 18 18.16 18 10.44 0 18.37-8 18.37-18v-127.5c-.83-29-24.63-52-52.82-52z"
              stroke="#000" stroke-opacity="0" stroke-width="2.03"/>
        <path d="M-62804.66-46640h1429.2" stroke="#3a414a" stroke-width="10" fill="none"/>
        <path d="M-62804.53-46635.03h-5.23l.1-4.94-.05-5h5.17z" stroke="#3a414a" stroke-width=".05" fill="#3a414a"/>
        <path d="M-61356.18-46640l-14.27 4.64v-9.28z" stroke="#3a414a" stroke-width="10" fill="#3a414a"/>
        <path d="M-65507.85-46640H-67035M-65525.8-46629.82l17.22-10.18-17.2-10.18M-67034.87-46640h-5.13"
              stroke="#3a414a" stroke-width="10" fill="none"/>
        <path d="M-64716.45-46617c22.97 0 41.76 18.5 41.76 41.5s-18.78 42-41.75 42c-22.96 0-41.54-19-41.54-42s18.6-41.5 41.55-41.5zm52.4 94H-64768c-28.83 0-52 23-52 52v127c0 10 7.93 18.5 18.37 18.5 10.23 0 18.17-8 18.17-18.5v-116.5c0-3 2.5-5.5 5.2-5.5 2.94 0 5.44 2.5 5.44 5.5v315c0 15.5 11.5 28.5 25.9 28.5 14.4 0 26.1-13 26.1-28.5v-179.5c0-3 2.28-5.5 5.2-5.5 2.93 0 5.23 2.5 5.23 5.5v179.5c0 15.5 11.7 28.5 26.1 28.5 14.4 0 25.9-13 25.9-28.5v-315c0-3 2.5-5.5 5.42-5.5 2.7 0 5.22 2.5 5.22 5.5v117c0 10 7.93 18 18.16 18 10.44 0 18.37-8 18.37-18v-127.5c-.83-29-24.63-52-52.82-52z"
              stroke="#000" stroke-opacity="0" stroke-width="2.03"/>
        <path d="M-64020-47751a6 6 0 0 1 6-6h1156.44a6 6 0 0 1 6 6v1608a6 6 0 0 1-6 6H-64014a6 6 0 0 1-6-6z"
              fill="none"/>
        <path d="M-64020-46137c58.7 0 106.3-47.6 106.3-106.3v-597.4c0-58.7 47.6-106.3 106.3-106.3-58.7 0-106.3-47.6-106.3-106.3v-597.4c0-58.7-47.6-106.3-106.3-106.3"
              stroke="#3a414a" stroke-width="10" fill="none"/>
        <use xlink:href="#a" transform="matrix(1,0,0,1,-63792.3917241061,-47752) translate(0 837)"/>
        <use xlink:href="#b" transform="matrix(1,0,0,1,-63792.3917241061,-47752) translate(44.44444444444444 837)"/>
        <use xlink:href="#c" transform="matrix(1,0,0,1,-63792.3917241061,-47752) translate(172 837)"/>
        <path d="M-66874.66-46701a6 6 0 0 1 6-6h1168a6 6 0 0 1 6 6v455a6 6 0 0 1-6 6h-1168a6 6 0 0 1-6-6z" stroke="#000"
              stroke-opacity="0" stroke-width="10" fill="#fff" fill-opacity="0"/>
        <use xlink:href="#d"
             transform="matrix(1,0,0,1,-66869.65744097176,-46702) translate(87.8888888888888 263.671875)"/>
        <use xlink:href="#e"
             transform="matrix(1,0,0,1,-66869.65744097176,-46702) translate(212.33333333333326 263.671875)"/>
        <path d="M-66257.52-47137c22.37 2 42.68-14.5 44.74-38 1.47-22.5-15-43-38.56-45-22.37-1.5-42.68 15-44.74 38.5-1.18 23 16.2 43 38.56 44.5m-35.32 17c7.94-5.5 17.95-9 29.14-8.5 13.54 1 25.9 10 32.67 20l41.5 82.5 56.22 39.5c4.7 4 7.94 10 7.65 16.5-.3 10-10 17.5-20.3 16.5-2.66 0-5.9-1.5-8.55-3l-60.93-41.5c-1.77-1.5-3.83-3.5-4.7-5.5l-15.9-31-18.55 82 73.6 87c1.46 3 2.64 6 3.52 9l19.72 104.5v6c-1.17 15.5-14.42 26.5-30.02 26-12.66-1-22.08-10.5-25.3-22l-18.56-97.5-59.75-66.5-13.54 63.5c-.6 3-4.72 9-5.9 11.5l-56.8 97c-5.9 8.5-15.02 14.5-26.2 13.5-15.9-1.5-27.38-14.5-26.2-30 .6-5 2.65-9 4.12-12.5l53.28-89 44.44-196.5-28.84 23.5-15.9 70c-1.47 8.5-10.3 16-19.72 15.5-10.3-.5-17.95-10-17.36-20 0-.5 0-2 .3-2.5l17.65-81.5c1.47-3.5 2.94-6.5 5.9-9l83.3-67.5zM-62477.52-47137c22.37 2 42.68-14.5 44.74-38 1.47-22.5-15-43-38.56-45-22.37-1.5-42.68 15-44.74 38.5-1.18 23 16.2 43 38.56 44.5m-35.32 17c7.94-5.5 17.95-9 29.14-8.5 13.54 1 25.9 10 32.67 20l41.5 82.5 56.22 39.5c4.7 4 7.94 10 7.65 16.5-.3 10-10 17.5-20.3 16.5-2.66 0-5.9-1.5-8.55-3l-60.93-41.5c-1.76-1.5-3.82-3.5-4.7-5.5l-15.9-31-18.55 82 73.6 87c1.46 3 2.64 6 3.52 9l19.72 104.5v6c-1.17 15.5-14.42 26.5-30.02 26-12.66-1-22.08-10.5-25.3-22l-18.56-97.5-59.75-66.5-13.54 63.5c-.6 3-4.72 9-5.9 11.5l-56.8 97c-5.9 8.5-15.02 14.5-26.2 13.5-15.9-1.5-27.38-14.5-26.2-30 .6-5 2.65-9 4.12-12.5l53.28-89 44.44-196.5-28.84 23.5-15.9 70c-1.47 8.5-10.3 16-19.72 15.5-10.3-.5-17.95-10-17.36-20 0-.5 0-2 .3-2.5l17.65-81.5c1.47-3.5 2.94-6.5 5.9-9l83.3-67.5zM-61617.52-47137c22.37 2 42.68-14.5 44.74-38 1.47-22.5-15-43-38.56-45-22.37-1.5-42.68 15-44.74 38.5-1.18 23 16.2 43 38.56 44.5m-35.32 17c7.94-5.5 17.95-9 29.14-8.5 13.54 1 25.9 10 32.67 20l41.5 82.5 56.22 39.5c4.7 4 7.94 10 7.65 16.5-.3 10-10 17.5-20.3 16.5-2.66 0-5.9-1.5-8.55-3l-60.93-41.5c-1.76-1.5-3.82-3.5-4.7-5.5l-15.9-31-18.55 82 73.6 87c1.46 3 2.64 6 3.52 9l19.72 104.5v6c-1.17 15.5-14.42 26.5-30.02 26-12.66-1-22.08-10.5-25.3-22l-18.56-97.5-59.75-66.5-13.54 63.5c-.6 3-4.72 9-5.9 11.5l-56.8 97c-5.9 8.5-15.02 14.5-26.2 13.5-15.9-1.5-27.38-14.5-26.2-30 .6-5 2.65-9 4.12-12.5l53.28-89 44.44-196.5-28.84 23.5-15.9 70c-1.47 8.5-10.3 16-19.72 15.5-10.3-.5-17.95-10-17.36-20 0-.5 0-2 .3-2.5l17.65-81.5c1.47-3.5 2.94-6.5 5.9-9l83.3-67.5z"
              stroke="#000" stroke-opacity="0" stroke-width="2.02"/>
        <path d="M-66725.43-47125.5c7.76-5.5 17.9-9 28.95-8.5 14.33 1 26.57 10 33.43 20.5l42.08 83.5 57.3 40c4.78 4 7.76 10 7.47 16.5-.3 10.5-9.85 18.5-20.6 17-2.68 0-5.97-1-8.65-2.5l-61.48-42.5c-1.8-1.5-3.6-3.5-4.78-6l-16.13-31-19.1 83.5 74.62 88c1.48 2.5 2.67 5.5 3.57 8.5l20 106v6c-1.2 16-14.93 27-30.15 26.5-12.83-1-22.68-10.5-25.67-22.5l-19.1-99-60.3-67-14.3 64c-.3 3-4.8 9.5-5.68 11.5l-57.9 98.5c-5.67 8.5-15.22 15-26.26 13.5-16.1-1.5-27.75-15-26.56-30.5.6-5 2.4-9 4.18-12.5l54.02-90 44.77-198.5-28.94 23.5-16.42 71c-1.5 8.5-10.14 16.5-20 16-10.14 0-18.2-9.5-17.9-20.5 0 0 0-1.5.6-2l18.2-82.5c1.2-3.5 2.7-6.5 5.67-9l85.07-69.5zM-66760.94-47200c5.07 34 34.32 60.5 70.13 60.5 22.38 0 40.3-18 40.3-40 0-22.5-18.22-40.5-40.3-40.5-15.53 0-28.36 8-35.22 20.5-.6 1.5-1.8 3-3 4-8.05 8-20.88 8-28.94 0-1.5-1.5-2.4-3-2.98-4.5zM-62090.77-47125.5c7.76-5.5 17.9-9 28.95-8.5 14.33 1 26.56 10 33.43 20.5l42.1 83.5 57.3 40c4.77 4 7.75 10 7.45 16.5-.3 10.5-9.84 18.5-20.6 17-2.68 0-5.96-1-8.64-2.5l-61.48-42.5c-1.8-1.5-3.58-3.5-4.77-6l-16.12-31-19.1 83.5 74.6 88c1.5 2.5 2.7 5.5 3.6 8.5l20 106v6c-1.2 16-14.93 27-30.15 26.5-12.83-1-22.68-10.5-25.67-22.5l-19.1-99-60.28-67-14.32 64c-.3 3-4.78 9.5-5.67 11.5l-57.9 98.5c-5.67 8.5-15.22 15-26.27 13.5-16.1-1.5-27.75-15-26.56-30.5.6-5 2.4-9 4.18-12.5l54.02-90 44.77-198.5-28.95 23.5-16.42 71c-1.5 8.5-10.15 16.5-20 16-10.14 0-18.2-9.5-17.9-20.5 0 0 0-1.5.6-2l18.2-82.5c1.2-3.5 2.7-6.5 5.67-9l85.06-69.5zM-62126.3-47200c5.1 34 34.34 60.5 70.15 60.5 22.4 0 40.3-18 40.3-40 0-22.5-18.2-40.5-40.3-40.5-15.52 0-28.35 8-35.22 20.5-.6 1.5-1.8 3-2.98 4-8.06 8-20.9 8-28.95 0-1.5-1.5-2.4-3-3-4.5z"
              stroke="#000" stroke-opacity="0" stroke-width="3.95"/>
        <path d="M-64284.5-47754.5c-8.14 8-21.4 8-29.3 0-1.28-1.5-2.35-3-3.2-4-7.27-12.5-20.95-21.5-36.13-21.5-22.87 0-41.9 18.5-41.9 42 0 23 18.4 41.5 41.9 41.5 36.55 0 66.48-27 71.82-62-.86 1.5-2.14 2.5-3.2 4zm38.03 246l-15.6-132.5c-3.63-25.5-25.44-45-51.3-45h-79.5c-25.88 0-48.1 19.5-51.3 45l-15.62 132.5c-1.27 10 6 19 15.83 20 10.05 1 18.8-6 20.1-16l14.74-123c.43-2.5 2.57-4.5 5.35-4.5 2.77 0 5.13 2.5 5.13 5v1s-10.9 87-10.9 89c-.22 2.5-.22 4.5-.22 6.5v221.5c0 16 11.54 28 25.86 28 14.53 0 26.07-12 26.07-28v-179.5c0-2.5 2.35-5 5.13-5s5.34 2.5 5.34 5v180.5c0 15.5 11.55 28 25.87 28 14.54 0 26.08-12.5 26.08-28v-222c0-2 0-4.5-.42-6.5-.43-2-10.7-89-10.7-89v-1c0-3 2.36-5 5.14-5 2.35 0 4.5 2 5.13 4l14.96 123.5c1.06 10 10.25 17 19.87 16 8.98-1.5 16.25-10.5 14.96-20.5zM-64264.5-46591.5c-8.14 8-21.4 8-29.3 0-1.28-1.5-2.35-3-3.2-4-7.27-12.5-20.95-21.5-36.13-21.5-22.87 0-41.9 18.5-41.9 42 0 23 18.4 41.5 41.9 41.5 36.55 0 66.48-27 71.82-62-.86 1.5-2.14 2.5-3.2 4zm38.03 246l-15.6-132.5c-3.63-25.5-25.44-45-51.3-45h-79.5c-25.88 0-48.1 19.5-51.3 45l-15.62 132.5c-1.27 10 6 19 15.83 20 10.05 1 18.8-6 20.1-16l14.74-123c.43-2.5 2.57-4.5 5.35-4.5 2.77 0 5.13 2.5 5.13 5v1s-10.9 87-10.9 89c-.22 2.5-.22 4.5-.22 6.5v221.5c0 16 11.54 28 25.86 28 14.53 0 26.07-12 26.07-28v-179.5c0-2.5 2.35-5 5.13-5s5.34 2.5 5.34 5v180.5c0 15.5 11.55 28 25.87 28 14.54 0 26.08-12.5 26.08-28v-222c0-2 0-4.5-.42-6.5-.43-2-10.7-89-10.7-89v-1c0-3 2.36-5 5.14-5 2.35 0 4.5 2 5.13 4l14.96 123.5c1.06 10 10.25 17 19.87 16 8.98-1.5 16.25-10.5 14.96-20.5zM-64844.5-47174.5c-8.14 8-21.4 8-29.3 0-1.28-1.5-2.35-3-3.2-4-7.27-12.5-20.95-21.5-36.13-21.5-22.87 0-41.9 18.5-41.9 42 0 23 18.4 41.5 41.9 41.5 36.55 0 66.48-27 71.82-62-.86 1.5-2.14 2.5-3.2 4zm38.03 246l-15.6-132.5c-3.63-25.5-25.44-45-51.3-45h-79.5c-25.88 0-48.1 19.5-51.3 45l-15.62 132.5c-1.27 10 6 19 15.83 20 10.05 1 18.8-6 20.1-16l14.74-123c.43-2.5 2.57-4.5 5.35-4.5 2.77 0 5.13 2.5 5.13 5v1s-10.9 87-10.9 89c-.22 2.5-.22 4.5-.22 6.5v221.5c0 16 11.54 28 25.86 28 14.53 0 26.07-12 26.07-28v-179.5c0-2.5 2.35-5 5.13-5s5.34 2.5 5.34 5v180.5c0 15.5 11.55 28 25.87 28 14.54 0 26.08-12.5 26.08-28v-222c0-2 0-4.5-.42-6.5-.43-2-10.7-89-10.7-89v-1c0-3 2.36-5 5.14-5 2.35 0 4.5 2 5.13 4l14.96 123.5c1.06 10 10.25 17 19.87 16 8.98-1.5 16.25-10.5 14.96-20.5z"
              stroke="#000" stroke-opacity="0" stroke-width="2"/>
        <path d="M-65850.77-47125.5c7.76-5.5 17.9-9 28.95-8.5 14.33 1 26.56 10 33.43 20.5l42.1 83.5 57.3 40c4.77 4 7.75 10 7.45 16.5-.3 10.5-9.85 18.5-20.6 17-2.68 0-5.96-1-8.65-2.5l-61.48-42.5c-1.8-1.5-3.58-3.5-4.77-6l-16.12-31-19.1 83.5 74.6 88c1.5 2.5 2.7 5.5 3.6 8.5l20 106v6c-1.2 16-14.93 27-30.15 26.5-12.83-1-22.68-10.5-25.67-22.5l-19.1-99-60.28-67-14.32 64c-.3 3-4.78 9.5-5.67 11.5l-57.9 98.5c-5.67 8.5-15.23 15-26.27 13.5-16.1-1.5-27.75-15-26.56-30.5.6-5 2.4-9 4.18-12.5l54.02-90 44.77-198.5-28.95 23.5-16.42 71c-1.5 8.5-10.15 16.5-20 16-10.14 0-18.2-9.5-17.9-20.5 0 0 0-1.5.6-2l18.2-82.5c1.2-3.5 2.7-6.5 5.67-9l85.06-69.5zM-65886.3-47200c5.1 34 34.34 60.5 70.15 60.5 22.38 0 40.3-18 40.3-40 0-22.5-18.2-40.5-40.3-40.5-15.52 0-28.35 8-35.22 20.5-.6 1.5-1.8 3-2.98 4-8.06 8-20.9 8-28.95 0-1.5-1.5-2.4-3-3-4.5z"
              stroke="#000" stroke-opacity="0" stroke-width="3.95"/>
        <path d="M-64220-45834a6 6 0 0 1 6-6h988a6 6 0 0 1 6 6v288a6 6 0 0 1-6 6h-988a6 6 0 0 1-6-6z" stroke="#000"
              stroke-opacity="0" stroke-width="10" fill="#fff" fill-opacity="0"/>
        <use xlink:href="#f" transform="matrix(1,0,0,1,-64215,-45835) translate(91.44444444444446 177.84375)"/>
        <use xlink:href="#g" transform="matrix(1,0,0,1,-64215,-45835) translate(286.55555555555554 177.84375)"/>
        <path d="M-62680-46701a6 6 0 0 1 6-6h1168a6 6 0 0 1 6 6v455a6 6 0 0 1-6 6h-1168a6 6 0 0 1-6-6z" stroke="#000"
              stroke-opacity="0" stroke-width="10" fill="#fff" fill-opacity="0"/>
        <use xlink:href="#d" transform="matrix(1,0,0,1,-62675,-46702) translate(87.8888888888888 263.671875)"/>
        <use xlink:href="#e" transform="matrix(1,0,0,1,-62675,-46702) translate(212.33333333333326 263.671875)"/>
        <path d="M-65693.76-45054a6 6 0 0 1 6-6h3068a6 6 0 0 1 6 6v462a6 6 0 0 1-6 6h-3068a6 6 0 0 1-6-6z" stroke="#000"
              stroke-opacity="0" stroke-width="10" fill="#fff" fill-opacity="0"/>
        <use xlink:href="#h"
             transform="matrix(1,0,0,1,-65688.75513026089,-45055) translate(434.03703703703695 272.1666666666667)"/>
        <use xlink:href="#i"
             transform="matrix(1,0,0,1,-65688.75513026089,-45055) translate(604.1111111111111 272.1666666666667)"/>
        <use xlink:href="#j"
             transform="matrix(1,0,0,1,-65688.75513026089,-45055) translate(787.8148148148148 272.1666666666667)"/>
        <use xlink:href="#k"
             transform="matrix(1,0,0,1,-65688.75513026089,-45055) translate(1154.6296296296296 272.1666666666667)"/>
        <use xlink:href="#l"
             transform="matrix(1,0,0,1,-65688.75513026089,-45055) translate(1925.7407407407409 272.1666666666667)"/>
        <path d="M-64744.2-48534a6 6 0 0 1 6-6h1168a6 6 0 0 1 6 6v254a6 6 0 0 1-6 6h-1168a6 6 0 0 1-6-6z" stroke="#000"
              stroke-opacity="0" stroke-width="10" fill="#fff" fill-opacity="0"/>
        <use xlink:href="#m"
             transform="matrix(1,0,0,1,-64739.206285616325,-48535) translate(62.03703703703695 178.66666666666669)"/>
        <use xlink:href="#n"
             transform="matrix(1,0,0,1,-64739.206285616325,-48535) translate(717.4444444444445 178.66666666666669)"/>
        <path d="M-63320-48014a6 6 0 0 1 6-6h1168a6 6 0 0 1 6 6v455a6 6 0 0 1-6 6h-1168a6 6 0 0 1-6-6z" stroke="#000"
              stroke-opacity="0" stroke-width="10" fill="#fff" fill-opacity="0"/>
        <g>
            <use xlink:href="#o" transform="matrix(1,0,0,1,-63315,-48015) translate(96.55555555555554 263.671875)"/>
            <use xlink:href="#p" transform="matrix(1,0,0,1,-63315,-48015) translate(567.2222222222222 263.671875)"/>
        </g>
        <path d="M-64444.8-45662.42l101.07-133.92c3.1-4.34 2.48-9.92-1.24-13.02-3.72-3.72-9.92-4.34-14.26-1.24l-139.5 96.72c-9.3 6.2-14.88 16.12-16.12 26.66-.62 11.16 3.72 21.7 11.16 29.14 7.45 6.82 17.37 10.54 27.3 10.54 12.4 0 24.17-5.58 31.6-14.88z"
              stroke="#000" stroke-opacity="0" stroke-width="8.33"/>
        <path d="M-64231.5-45837.88v-.62l-.63-.62c-10.54-17.98-23.56-34.72-38.44-49.6l22.94-22.32 15.5 14.88 45.88-44.02-45.88-44.02-45.88 44.02 15.5 14.88-23.57 21.7c-15.5-13.64-32.86-26.04-51.46-36.58-.62 0-.62-.62-.62-.62h-.62c-33.48-18.6-71.3-31-110.98-35.34v-12.4h16.12c14.88 0 26.66-11.16 26.66-25.42 0-14.26-11.78-26.04-26.66-26.04h-97.34c-14.88 0-26.66 11.78-26.66 26.04s11.78 25.42 26.66 25.42h16.12v12.4c-11.78 1.24-22.94 2.48-34.72 5.58-5.58 1.24-9.3 6.82-8.06 11.78 1.24 5.58 7.44 9.3 13.02 8.06 9.9-2.48 20.45-3.72 31-4.96l10.53-.62c3.72-.62 6.82-.62 9.92-.62v20.46c0 5.58 4.96 9.92 11.16 9.92 5.6 0 10.55-4.34 10.55-9.92v-20.46c40.3 1.86 78.74 12.4 112.84 29.14l-10.55 17.98c-3.1 4.96-1.24 11.16 3.72 13.64 1.86 1.24 3.72 1.86 5.58 1.86 3.72 0 7.44-1.86 9.3-5.58l10.54-17.36c34.1 20.46 62.6 47.74 84.3 80.6l-18.6 9.92c-4.95 3.1-6.8 9.3-3.7 14.26 1.85 3.1 5.57 4.96 9.3 4.96 1.85 0 3.7-.62 4.95-1.24l18.6-10.54c17.98 33.48 29.14 70.68 31 109.74h-21.7c-5.58 0-10.54 4.96-10.54 10.54 0 5.58 4.97 10.54 10.55 10.54h21.7c-1.86 39.06-13.02 76.26-31 109.74l-18.6-10.54c-4.96-2.48-11.78-1.24-14.26 3.72-3.1 4.96-1.25 11.16 3.7 14.26l18.6 9.92c-21.7 32.86-50.2 60.14-84.3 80.6l-10.55-17.36c-3.1-4.96-9.3-6.82-14.88-4.34-4.96 3.1-6.82 9.3-3.72 14.26l10.54 17.98c-34.1 16.74-72.55 27.28-112.85 29.14v-20.46c0-5.58-4.96-9.92-10.54-9.92-6.2 0-11.15 4.34-11.15 9.92v20.46c-17.36-.62-34.72-2.48-51.46-6.2-5.6-1.24-11.8 2.48-13.03 8.06-1.24 4.96 2.48 10.54 8.06 11.78 21.7 4.96 43.4 7.44 65.72 7.44H-64482c52.1-.62 100.45-13.64 142.6-37.2h1.25s0-.62.62-.62c43.4-24.18 79.98-58.9 105.4-101.06 0 0 .62 0 .62-.62v-.62c24.8-40.92 39.05-88.04 39.05-138.88 0-50.22-14.26-97.96-39.06-138.88z"
              stroke="#000" stroke-opacity="0" stroke-width="8.33"/>
        <path d="M-64579.33-45905.46h-53.94c-12.4 0-21.7 9.3-21.7 20.46s9.3 20.46 21.7 20.46h53.94c11.78 0 21.7-9.3 21.7-20.46s-9.92-20.46-21.7-20.46zM-64579.33-45833.54h-107.88c-12.4 0-21.7 9.3-21.7 21.08 0 11.16 9.3 20.46 21.7 20.46h107.87c11.78 0 21.7-9.3 21.7-20.46 0-11.78-9.92-21.08-21.7-21.08zM-64579.33-45761h-161.82c-12.4 0-21.7 9.3-21.7 20.46 0 11.78 9.3 21.08 21.7 21.08h161.82c11.78 0 21.7-9.3 21.7-21.08 0-11.16-9.92-20.46-21.7-20.46zM-64579.33-45688.46h-205.22c-11.78 0-21.7 9.3-21.7 20.46s9.92 20.46 21.7 20.46h205.22c11.78 0 21.7-9.3 21.7-20.46s-9.92-20.46-21.7-20.46zM-64579.33-45616.54h-140.74c-11.78 0-21.08 9.3-21.08 21.08 0 11.16 9.3 20.46 21.08 20.46h140.74c11.78 0 21.7-9.3 21.7-20.46 0-11.78-9.92-21.08-21.7-21.08zM-64579.33-45544h-75.64c-11.78 0-21.7 9.3-21.7 20.46 0 11.78 9.92 21.08 21.7 21.08h75.64c11.78 0 21.7-9.3 21.7-21.08 0-11.16-9.92-20.46-21.7-20.46z"
              stroke="#000" stroke-opacity="0" stroke-width="8.33"/>
        <defs>
            <path d="M30 0v-248h33v221h125V0H30" id="q"/>
            <use transform="matrix(0.4444444444444444,0,0,0.4444444444444444,0,0)" xlink:href="#q" id="b"/>
            <path d="M87 75C49 33 22-17 22-94c0-76 28-126 65-167h31c-38 41-64 92-64 168S80 34 118 75H87" id="r"/>
            <path d="M96-169c-40 0-48 33-48 73s9 75 48 75c24 0 41-14 43-38l32 2c-6 37-31 61-74 61-59 0-76-41-82-99-10-93 101-131 147-64 4 7 5 14 7 22l-32 3c-4-21-16-35-41-35"
                  id="s"/>
            <path d="M141-36C126-15 110 5 73 4 37 3 15-17 15-53c-1-64 63-63 125-63 3-35-9-54-41-54-24 1-41 7-42 31l-33-3c5-37 33-52 76-52 45 0 72 20 72 64v82c-1 20 7 32 28 27v20c-31 9-61-2-59-35zM48-53c0 20 12 33 32 33 41-3 63-29 60-74-43 2-92-5-92 41"
                  id="t"/>
            <path d="M115-194c55 1 70 41 70 98S169 2 115 4C84 4 66-9 55-30l1 105H24l-1-265h31l2 30c10-21 28-34 59-34zm-8 174c40 0 45-34 45-75s-6-73-45-74c-42 0-51 32-51 76 0 43 10 73 51 73"
                  id="u"/>
            <path d="M24-231v-30h32v30H24zM24 0v-190h32V0H24" id="v"/>
            <path d="M59-47c-2 24 18 29 38 22v24C64 9 27 4 27-40v-127H5v-23h24l9-43h21v43h35v23H59v120" id="w"/>
            <path d="M179-190L93 31C79 59 56 82 12 73V49c39 6 53-20 64-50L1-190h34L92-34l54-156h33" id="x"/>
            <path d="M33-261c38 41 65 92 65 168S71 34 33 75H2C39 34 66-17 66-93S39-220 2-261h31" id="y"/>
            <g id="c">
                <use transform="matrix(0.4444444444444444,0,0,0.4444444444444444,0,0)" xlink:href="#r"/>
                <use transform="matrix(0.4444444444444444,0,0,0.4444444444444444,52.888888888888886,0)"
                     xlink:href="#s"/>
                <use transform="matrix(0.4444444444444444,0,0,0.4444444444444444,132.88888888888889,0)"
                     xlink:href="#t"/>
                <use transform="matrix(0.4444444444444444,0,0,0.4444444444444444,221.77777777777777,0)"
                     xlink:href="#u"/>
                <use transform="matrix(0.4444444444444444,0,0,0.4444444444444444,310.66666666666663,0)"
                     xlink:href="#t"/>
                <use transform="matrix(0.4444444444444444,0,0,0.4444444444444444,399.55555555555554,0)"
                     xlink:href="#s"/>
                <use transform="matrix(0.4444444444444444,0,0,0.4444444444444444,479.55555555555554,0)"
                     xlink:href="#v"/>
                <use transform="matrix(0.4444444444444444,0,0,0.4444444444444444,514.6666666666666,0)" xlink:href="#w"/>
                <use transform="matrix(0.4444444444444444,0,0,0.4444444444444444,559.1111111111111,0)" xlink:href="#x"/>
                <use transform="matrix(0.4444444444444444,0,0,0.4444444444444444,639.1111111111111,0)" xlink:href="#y"/>
            </g>
            <path d="M23-257c46-16 66 21 79 56L177 0h-34L96-139C78-91 56-46 35 0H2l79-170c-12-25-14-73-52-64" id="z"/>
            <use transform="matrix(0.4444444444444444,0,0,0.4444444444444444,0,0)" xlink:href="#z" id="d"/>
            <path d="M106-169C34-169 62-67 57 0H25v-261h32l-1 103c12-21 28-36 61-36 89 0 53 116 60 194h-32v-121c2-32-8-49-39-48"
                  id="A"/>
            <path d="M114-163C36-179 61-72 57 0H25l-1-190h30c1 12-1 29 2 39 6-27 23-49 58-41v29" id="B"/>
            <path d="M100-194c62-1 85 37 85 99 1 63-27 99-86 99S16-35 15-95c0-66 28-99 85-99zM99-20c44 1 53-31 53-75 0-43-8-75-51-75s-53 32-53 75 10 74 51 75"
                  id="C"/>
            <path d="M84 4C-5 8 30-112 23-190h32v120c0 31 7 50 39 49 72-2 45-101 50-169h31l1 190h-30c-1-10 1-25-2-33-11 22-28 36-60 37"
                  id="D"/>
            <path d="M177-190C167-65 218 103 67 71c-23-6-38-20-44-43l32-5c15 47 100 32 89-28v-30C133-14 115 1 83 1 29 1 15-40 15-95c0-56 16-97 71-98 29-1 48 16 59 35 1-10 0-23 2-32h30zM94-22c36 0 50-32 50-73 0-42-14-75-50-75-39 0-46 34-46 75s6 73 46 73"
                  id="E"/>
            <g id="e">
                <use transform="matrix(0.4444444444444444,0,0,0.4444444444444444,0,0)" xlink:href="#r"/>
                <use transform="matrix(0.4444444444444444,0,0,0.4444444444444444,52.888888888888886,0)"
                     xlink:href="#w"/>
                <use transform="matrix(0.4444444444444444,0,0,0.4444444444444444,97.33333333333333,0)" xlink:href="#A"/>
                <use transform="matrix(0.4444444444444444,0,0,0.4444444444444444,186.22222222222223,0)"
                     xlink:href="#B"/>
                <use transform="matrix(0.4444444444444444,0,0,0.4444444444444444,239.1111111111111,0)" xlink:href="#C"/>
                <use transform="matrix(0.4444444444444444,0,0,0.4444444444444444,328,0)" xlink:href="#D"/>
                <use transform="matrix(0.4444444444444444,0,0,0.4444444444444444,416.8888888888889,0)" xlink:href="#E"/>
                <use transform="matrix(0.4444444444444444,0,0,0.4444444444444444,505.7777777777778,0)" xlink:href="#A"/>
                <use transform="matrix(0.4444444444444444,0,0,0.4444444444444444,594.6666666666667,0)" xlink:href="#u"/>
                <use transform="matrix(0.4444444444444444,0,0,0.4444444444444444,683.5555555555557,0)" xlink:href="#D"/>
                <use transform="matrix(0.4444444444444444,0,0,0.4444444444444444,772.4444444444446,0)" xlink:href="#w"/>
                <use transform="matrix(0.4444444444444444,0,0,0.4444444444444444,816.888888888889,0)" xlink:href="#y"/>
            </g>
            <path d="M266 0h-40l-56-210L115 0H75L2-248h35L96-30l15-64 43-154h32l59 218 59-218h35" id="F"/>
            <use transform="matrix(0.4444444444444444,0,0,0.4444444444444444,0,0)" xlink:href="#F" id="f"/>
            <path d="M24 0v-261h32V0H24" id="G"/>
            <path d="M100-194c63 0 86 42 84 106H49c0 40 14 67 53 68 26 1 43-12 49-29l28 8c-11 28-37 45-77 45C44 4 14-33 15-96c1-61 26-98 85-98zm52 81c6-60-76-77-97-28-3 7-6 17-6 28h103"
                  id="H"/>
            <path d="M117-194c89-4 53 116 60 194h-32v-121c0-31-8-49-39-48C34-167 62-67 57 0H25l-1-190h30c1 10-1 24 2 32 11-22 29-35 61-36"
                  id="I"/>
            <g id="g">
                <use transform="matrix(0.4444444444444444,0,0,0.4444444444444444,0,0)" xlink:href="#r"/>
                <use transform="matrix(0.4444444444444444,0,0,0.4444444444444444,52.888888888888886,0)"
                     xlink:href="#G"/>
                <use transform="matrix(0.4444444444444444,0,0,0.4444444444444444,88,0)" xlink:href="#t"/>
                <use transform="matrix(0.4444444444444444,0,0,0.4444444444444444,176.88888888888889,0)"
                     xlink:href="#w"/>
                <use transform="matrix(0.4444444444444444,0,0,0.4444444444444444,221.33333333333331,0)"
                     xlink:href="#H"/>
                <use transform="matrix(0.4444444444444444,0,0,0.4444444444444444,310.2222222222222,0)" xlink:href="#I"/>
                <use transform="matrix(0.4444444444444444,0,0,0.4444444444444444,399.1111111111111,0)" xlink:href="#s"/>
                <use transform="matrix(0.4444444444444444,0,0,0.4444444444444444,479.1111111111111,0)" xlink:href="#x"/>
                <use transform="matrix(0.4444444444444444,0,0,0.4444444444444444,559.1111111111111,0)" xlink:href="#y"/>
            </g>
            <use transform="matrix(0.5925925925925927,0,0,0.5925925925925927,0,0)" xlink:href="#q" id="h"/>
            <path d="M18-150v-26h174v26H18zm0 90v-26h174v26H18" id="J"/>
            <use transform="matrix(0.5925925925925927,0,0,0.5925925925925927,0,0)" xlink:href="#J" id="i"/>
            <g id="j">
                <use transform="matrix(0.5925925925925927,0,0,0.5925925925925927,0,0)" xlink:href="#z"/>
                <use transform="matrix(0.5925925925925927,0,0,0.5925925925925927,106.66666666666669,0)"
                     xlink:href="#F"/>
            </g>
            <path d="M16-82v-28h88v28H16" id="K"/>
            <path d="M210-169c-67 3-38 105-44 169h-31v-121c0-29-5-50-35-48C34-165 62-65 56 0H25l-1-190h30c1 10-1 24 2 32 10-44 99-50 107 0 11-21 27-35 58-36 85-2 47 119 55 194h-31v-121c0-29-5-49-35-48"
                  id="L"/>
            <g id="k">
                <use transform="matrix(0.4444444444444444,0,0,0.4444444444444444,0,0)" xlink:href="#r"/>
                <use transform="matrix(0.4444444444444444,0,0,0.4444444444444444,52.888888888888886,0)"
                     xlink:href="#G"/>
                <use transform="matrix(0.4444444444444444,0,0,0.4444444444444444,88,0)" xlink:href="#C"/>
                <use transform="matrix(0.4444444444444444,0,0,0.4444444444444444,176.88888888888889,0)"
                     xlink:href="#I"/>
                <use transform="matrix(0.4444444444444444,0,0,0.4444444444444444,265.77777777777777,0)"
                     xlink:href="#E"/>
                <use transform="matrix(0.4444444444444444,0,0,0.4444444444444444,354.66666666666663,0)"
                     xlink:href="#K"/>
                <use transform="matrix(0.4444444444444444,0,0,0.4444444444444444,407.55555555555554,0)"
                     xlink:href="#w"/>
                <use transform="matrix(0.4444444444444444,0,0,0.4444444444444444,452,0)" xlink:href="#H"/>
                <use transform="matrix(0.4444444444444444,0,0,0.4444444444444444,540.8888888888889,0)" xlink:href="#B"/>
                <use transform="matrix(0.4444444444444444,0,0,0.4444444444444444,593.7777777777778,0)" xlink:href="#L"/>
            </g>
            <path d="M108 0H70L1-190h34L89-25l56-165h34" id="M"/>
            <path d="M135-143c-3-34-86-38-87 0 15 53 115 12 119 90S17 21 10-45l28-5c4 36 97 45 98 0-10-56-113-15-118-90-4-57 82-63 122-42 12 7 21 19 24 35"
                  id="N"/>
            <g id="l">
                <use transform="matrix(0.4444444444444444,0,0,0.4444444444444444,0,0)" xlink:href="#t"/>
                <use transform="matrix(0.4444444444444444,0,0,0.4444444444444444,88.88888888888889,0)" xlink:href="#M"/>
                <use transform="matrix(0.4444444444444444,0,0,0.4444444444444444,168.88888888888889,0)"
                     xlink:href="#H"/>
                <use transform="matrix(0.4444444444444444,0,0,0.4444444444444444,257.77777777777777,0)"
                     xlink:href="#B"/>
                <use transform="matrix(0.4444444444444444,0,0,0.4444444444444444,310.66666666666663,0)"
                     xlink:href="#t"/>
                <use transform="matrix(0.4444444444444444,0,0,0.4444444444444444,399.55555555555554,0)"
                     xlink:href="#E"/>
                <use transform="matrix(0.4444444444444444,0,0,0.4444444444444444,488.4444444444444,0)" xlink:href="#H"/>
                <use transform="matrix(0.4444444444444444,0,0,0.4444444444444444,577.3333333333334,0)" xlink:href="#N"/>
                <use transform="matrix(0.4444444444444444,0,0,0.4444444444444444,657.3333333333334,0)" xlink:href="#y"/>
            </g>
            <path d="M47-170H22l-4-78h33" id="O"/>
            <g id="m">
                <use transform="matrix(0.5925925925925927,0,0,0.5925925925925927,0,0)" xlink:href="#q"/>
                <use transform="matrix(0.5925925925925927,0,0,0.5925925925925927,118.51851851851853,0)"
                     xlink:href="#v"/>
                <use transform="matrix(0.5925925925925927,0,0,0.5925925925925927,165.33333333333334,0)"
                     xlink:href="#w"/>
                <use transform="matrix(0.5925925925925927,0,0,0.5925925925925927,224.5925925925926,0)" xlink:href="#w"/>
                <use transform="matrix(0.5925925925925927,0,0,0.5925925925925927,283.8518518518519,0)" xlink:href="#G"/>
                <use transform="matrix(0.5925925925925927,0,0,0.5925925925925927,330.6666666666667,0)" xlink:href="#H"/>
                <use transform="matrix(0.5925925925925927,0,0,0.5925925925925927,449.1851851851852,0)" xlink:href="#O"/>
                <use transform="matrix(0.5925925925925927,0,0,0.5925925925925927,489.48148148148164,0)"
                     xlink:href="#N"/>
            </g>
            <path d="M206 0h-36l-40-164L89 0H53L-1-190h32L70-26l43-164h34l41 164 42-164h31" id="P"/>
            <g id="n">
                <use transform="matrix(0.5925925925925927,0,0,0.5925925925925927,0,0)" xlink:href="#q"/>
                <use transform="matrix(0.5925925925925927,0,0,0.5925925925925927,118.51851851851853,0)"
                     xlink:href="#t"/>
                <use transform="matrix(0.5925925925925927,0,0,0.5925925925925927,237.03703703703707,0)"
                     xlink:href="#P"/>
            </g>
            <path d="M115-194c53 0 69 39 70 98 0 66-23 100-70 100C84 3 66-7 56-30L54 0H23l1-261h32v101c10-23 28-34 59-34zm-8 174c40 0 45-34 45-75 0-40-5-75-45-74-42 0-51 32-51 76 0 43 10 73 51 73"
                  id="Q"/>
            <g id="o">
                <use transform="matrix(0.4444444444444444,0,0,0.4444444444444444,0,0)" xlink:href="#N"/>
                <use transform="matrix(0.4444444444444444,0,0,0.4444444444444444,80,0)" xlink:href="#w"/>
                <use transform="matrix(0.4444444444444444,0,0,0.4444444444444444,124.44444444444444,0)"
                     xlink:href="#t"/>
                <use transform="matrix(0.4444444444444444,0,0,0.4444444444444444,213.33333333333331,0)"
                     xlink:href="#Q"/>
                <use transform="matrix(0.4444444444444444,0,0,0.4444444444444444,302.2222222222222,0)" xlink:href="#G"/>
                <use transform="matrix(0.4444444444444444,0,0,0.4444444444444444,337.33333333333326,0)"
                     xlink:href="#H"/>
            </g>
            <g id="p">
                <use transform="matrix(0.4444444444444444,0,0,0.4444444444444444,0,0)" xlink:href="#N"/>
                <use transform="matrix(0.4444444444444444,0,0,0.4444444444444444,80,0)" xlink:href="#x"/>
                <use transform="matrix(0.4444444444444444,0,0,0.4444444444444444,160,0)" xlink:href="#N"/>
                <use transform="matrix(0.4444444444444444,0,0,0.4444444444444444,240,0)" xlink:href="#w"/>
                <use transform="matrix(0.4444444444444444,0,0,0.4444444444444444,284.44444444444446,0)"
                     xlink:href="#H"/>
                <use transform="matrix(0.4444444444444444,0,0,0.4444444444444444,373.33333333333337,0)"
                     xlink:href="#L"/>
            </g>
        </defs>
    </g>
</svg>